<svg width="28" height="24" fill="none" xmlns="http://www.w3.org/2000/svg"><path d="M26.833.333h-4.666v3.5h-2.334v-3.5h-4.666v3.5h-2.334v-3.5H8.167v3.5H5.833v-3.5H1.167A1.167 1.167 0 000 1.5v21a1.167 1.167 0 001.167 1.167h25.666A1.167 1.167 0 0028 22.5v-21A1.167 1.167 0 0026.833.333zm-5.344 14.95L19.833 14.1V19a1.167 1.167 0 01-1.166 1.167H15.75V15.5a1.167 1.167 0 00-1.167-1.167h-1.166A1.167 1.167 0 0012.25 15.5v4.667H9.333A1.167 1.167 0 018.167 19v-4.9L6.51 15.283l-1.356-1.9 8.167-5.832a1.181 1.181 0 011.356 0l8.167 5.833-1.356 1.899z" fill="#fff"/></svg>