<?xml version="1.0" encoding="utf-8"?><svg viewBox="0 0 84 61" xmlns="http://www.w3.org/2000/svg" xmlns:xlink="http://www.w3.org/1999/xlink"><style>:root>svg{display:none}:root>svg:target{display:block}</style><svg fill="none" viewBox="0 0 84 38" id="Arrow1" xmlns="http://www.w3.org/2000/svg"><path d="M82.768 20.768a2.5 2.5 0 000-3.536l-15.91-15.91a2.5 2.5 0 00-3.536 3.536L77.464 19 63.323 33.142a2.5 2.5 0 003.536 3.536l15.91-15.91zM0 21.5h81v-5H0v5z" fill="#14274A"/></svg><svg fill="none" viewBox="0 0 14 21" id="arrow" xmlns="http://www.w3.org/2000/svg"><path d="M13.34 10.692l-9.693 9.693L.76 17.498l6.806-6.806L.76 3.885 3.647.998l9.693 9.694z" fill="#fff"/></svg><svg fill="none" viewBox="0 0 28 24" id="book" xmlns="http://www.w3.org/2000/svg"><path d="M26.833.333h-4.666v3.5h-2.334v-3.5h-4.666v3.5h-2.334v-3.5H8.167v3.5H5.833v-3.5H1.167A1.167 1.167 0 000 1.5v21a1.167 1.167 0 001.167 1.167h25.666A1.167 1.167 0 0028 22.5v-21A1.167 1.167 0 0026.833.333zm-5.344 14.95L19.833 14.1V19a1.167 1.167 0 01-1.166 1.167H15.75V15.5a1.167 1.167 0 00-1.167-1.167h-1.166A1.167 1.167 0 0012.25 15.5v4.667H9.333A1.167 1.167 0 018.167 19v-4.9L6.51 15.283l-1.356-1.9 8.167-5.832a1.181 1.181 0 011.356 0l8.167 5.833-1.356 1.899z" fill="#fff"/></svg><svg fill="none" viewBox="0 0 10 19" id="facebook" xmlns="http://www.w3.org/2000/svg"><path fill-rule="evenodd" clip-rule="evenodd" d="M6.346 19v-8.5h2.9l.416-3.319H6.346V5.103c0-.933.312-1.659 1.66-1.659h1.763V.433c-.415 0-1.448-.1-2.592-.1A4 4 0 002.92 4.689v2.488H.02v3.319h2.9v8.5L6.346 19z" fill="#fff"/></svg><svg fill="none" viewBox="0 0 19 20" id="instagram" xmlns="http://www.w3.org/2000/svg"><path fill-rule="evenodd" clip-rule="evenodd" d="M9.354 1.992a28.618 28.618 0 013.732.1 4.81 4.81 0 011.764.311 3.642 3.642 0 011.763 1.763c.212.565.317 1.164.308 1.767 0 .933.1 1.244.1 3.733a28.608 28.608 0 01-.1 3.733c.007.602-.098 1.2-.311 1.763a3.641 3.641 0 01-1.763 1.763 4.809 4.809 0 01-1.763.311c-.934 0-1.245.1-3.733.1-1.245.047-2.49.013-3.73-.103a4.809 4.809 0 01-1.763-.311 3.642 3.642 0 01-1.763-1.759 4.81 4.81 0 01-.311-1.763c0-.933-.1-1.244-.1-3.733a28.617 28.617 0 01.1-3.733 4.81 4.81 0 01.31-1.763c.182-.385.427-.736.727-1.038a1.753 1.753 0 011.037-.726 4.81 4.81 0 011.763-.311 28.619 28.619 0 013.733-.1v-.004zm0-1.659a30.642 30.642 0 00-3.833.1 6.4 6.4 0 00-2.285.419 4.06 4.06 0 00-1.66 1.037A4.06 4.06 0 00.54 3.548a4.725 4.725 0 00-.42 2.285 30.642 30.642 0 00-.1 3.833 30.641 30.641 0 00.1 3.837 6.4 6.4 0 00.416 2.281 4.06 4.06 0 001.037 1.659c.46.476 1.03.832 1.659 1.037a6.399 6.399 0 002.28.415c1.276.114 2.558.147 3.838.1 1.28.047 2.56.014 3.837-.1a6.398 6.398 0 002.28-.415 4.35 4.35 0 002.7-2.7 6.398 6.398 0 00.415-2.281c0-1.037.1-1.348.1-3.837.047-1.28.014-2.561-.1-3.837a6.399 6.399 0 00-.415-2.281 4.059 4.059 0 00-1.037-1.659A4.06 4.06 0 0015.474.852 6.4 6.4 0 0013.19.433a30.64 30.64 0 00-3.836-.1zm0 4.563a4.694 4.694 0 00-4.77 4.77 4.77 4.77 0 104.77-4.77zm0 7.881a3.055 3.055 0 01-3.111-3.111 3.056 3.056 0 013.11-3.111 3.056 3.056 0 013.111 3.111 3.055 3.055 0 01-3.11 3.111zm4.978-9.23a1.141 1.141 0 101.14 1.141 1.15 1.15 0 00-1.14-1.141z" fill="#fff"/></svg><svg fill="none" viewBox="0 0 61 61" id="scroll" xmlns="http://www.w3.org/2000/svg"><path d="M30.662 61A30.507 30.507 0 0118.79 2.4a30.508 30.508 0 0123.744 56.2A30.31 30.31 0 0130.662 61zM18.44 20.755l-5.017 4.9L30.262 42.1l16.841-16.45-5.017-4.9L30.262 32.3 18.44 20.755z" fill="#fff"/></svg><svg fill="none" viewBox="0 0 19 16" id="twitter" xmlns="http://www.w3.org/2000/svg"><path fill-rule="evenodd" clip-rule="evenodd" d="M5.932 15.808A10.794 10.794 0 0016.82 4.918V4.4a8.432 8.432 0 001.867-1.97 8.61 8.61 0 01-2.178.622A4.035 4.035 0 0018.169.978c-.75.417-1.552.73-2.385.933a3.7 3.7 0 00-2.8-1.244 3.9 3.9 0 00-3.837 3.837c-.025.28.009.563.1.83A10.722 10.722 0 011.366 1.29c-.342.6-.52 1.28-.52 1.97a4.12 4.12 0 001.66 3.215 3.5 3.5 0 01-1.763-.52 3.79 3.79 0 003.11 3.734 3.2 3.2 0 01-1.036.1 1.765 1.765 0 01-.726-.1 3.929 3.929 0 003.63 2.7 7.83 7.83 0 01-4.77 1.659 2.872 2.872 0 01-.933-.1 9.788 9.788 0 005.91 1.867" fill="#fff"/></svg><svg fill="none" viewBox="0 0 51 51" id="view" xmlns="http://www.w3.org/2000/svg"><circle cx="25.5" cy="25.5" r="25.5" fill="#E0B973"/><path stroke="#fff" stroke-width="3" d="M41 26.5H11"/></svg><svg fill="none" viewBox="0 0 51 51" id="view1" xmlns="http://www.w3.org/2000/svg"><circle cx="25.5" cy="25.5" r="25.5" fill="#E0B973"/><path stroke="#fff" stroke-width="3" d="M26.5 11v30M41 26.5H11"/></svg></svg>