<svg width="61" height="61" viewBox="0 0 61 61" fill="none" xmlns="http://www.w3.org/2000/svg">
<path d="M30.6621 60.9999C23.627 60.9938 16.8102 58.5565 11.3661 54.1007C5.92196 49.6449 2.18505 43.4446 0.788163 36.5496C-0.608724 29.6546 0.420267 22.4887 3.70089 16.2653C6.98151 10.042 12.3121 5.14369 18.7901 2.3999C26.2181 -0.616122 34.5348 -0.587082 41.9416 2.48074C49.3484 5.54856 55.25 11.4086 58.3701 18.7935C61.4902 26.1785 61.5779 34.4948 58.6145 41.9439C55.651 49.3931 49.8745 55.3764 42.5341 58.5999C38.7786 60.1905 34.7406 61.0068 30.6621 60.9999ZM18.4391 20.7549L13.4221 25.6549L30.2621 42.0999L47.1031 25.6499L42.0861 20.7499L30.2621 32.2999L18.4391 20.7549Z" fill="white"/>
</svg>
